<?xml version="1.0" encoding="UTF-8" standalone="no"?>
<!-- Created with matplotlib (http://matplotlib.org/) -->

<svg
   xmlns:dc="http://purl.org/dc/elements/1.1/"
   xmlns:cc="http://creativecommons.org/ns#"
   xmlns:rdf="http://www.w3.org/1999/02/22-rdf-syntax-ns#"
   xmlns:svg="http://www.w3.org/2000/svg"
   xmlns="http://www.w3.org/2000/svg"
   xmlns:xlink="http://www.w3.org/1999/xlink"
   xmlns:sodipodi="http://sodipodi.sourceforge.net/DTD/sodipodi-0.dtd"
   xmlns:inkscape="http://www.inkscape.org/namespaces/inkscape"
   height="487.99368"
   version="1.1"
   viewBox="0 0 604.60913 390.39495"
   width="755.76141"
   id="svg2"
   inkscape:version="0.48.5 r10040"
   sodipodi:docname="emission-line-params.svg">
  <metadata
     id="metadata455">
    <rdf:RDF>
      <cc:Work
         rdf:about="">
        <dc:format>image/svg+xml</dc:format>
        <dc:type
           rdf:resource="http://purl.org/dc/dcmitype/StillImage" />
      </cc:Work>
    </rdf:RDF>
  </metadata>
  <sodipodi:namedview
     pagecolor="#ffffff"
     bordercolor="#666666"
     borderopacity="1"
     objecttolerance="10"
     gridtolerance="10"
     guidetolerance="10"
     inkscape:pageopacity="0"
     inkscape:pageshadow="2"
     inkscape:window-width="1920"
     inkscape:window-height="1014"
     id="namedview453"
     showgrid="false"
     inkscape:zoom="1.0685169"
     inkscape:cx="457.63554"
     inkscape:cy="174.99216"
     inkscape:window-x="0"
     inkscape:window-y="27"
     inkscape:window-maximized="1"
     inkscape:current-layer="svg2"
     fit-margin-top="0"
     fit-margin-left="0"
     fit-margin-right="0"
     fit-margin-bottom="0" />
  <defs
     id="defs4"
     style="stroke-linecap:butt;stroke-linejoin:round;stroke-miterlimit:100000">
    <marker
       inkscape:stockid="TriangleInL"
       orient="auto"
       refY="0"
       refX="0"
       id="TriangleInL"
       style="stroke-linecap:butt;stroke-linejoin:round;stroke-miterlimit:100000;overflow:visible">
      <path
         id="path4991"
         d="m 5.77,0 -8.65,5 0,-10 8.65,5 z"
         style="fill-rule:evenodd;stroke:#000000;stroke-width:1pt;stroke-linecap:butt;stroke-linejoin:round;stroke-miterlimit:100000"
         transform="scale(-0.8,-0.8)"
         inkscape:connector-curvature="0" />
    </marker>
    <marker
       inkscape:stockid="TriangleOutL"
       orient="auto"
       refY="0"
       refX="0"
       id="TriangleOutL"
       style="stroke-linecap:butt;stroke-linejoin:round;stroke-miterlimit:100000;overflow:visible">
      <path
         id="path5000"
         d="m 5.77,0 -8.65,5 0,-10 8.65,5 z"
         style="fill-rule:evenodd;stroke:#000000;stroke-width:1pt;stroke-linecap:butt;stroke-linejoin:round;stroke-miterlimit:100000"
         transform="scale(0.8,0.8)"
         inkscape:connector-curvature="0" />
    </marker>
    <marker
       inkscape:stockid="Arrow1Lend"
       orient="auto"
       refY="0"
       refX="0"
       id="Arrow1Lend"
       style="stroke-linecap:butt;stroke-linejoin:round;stroke-miterlimit:100000;overflow:visible">
      <path
         id="path4861"
         d="M 0,0 5,-5 -12.5,0 5,5 0,0 z"
         style="fill-rule:evenodd;stroke:#000000;stroke-width:1pt;stroke-linecap:butt;stroke-linejoin:round;stroke-miterlimit:100000"
         transform="matrix(-0.8,0,0,-0.8,-10,0)"
         inkscape:connector-curvature="0" />
    </marker>
    <style
       type="text/css"
       id="style6">
*{stroke-linecap:butt;stroke-linejoin:round;stroke-miterlimit:100000;}
  </style>
    <marker
       inkscape:stockid="TriangleOutL"
       orient="auto"
       refY="0"
       refX="0"
       id="TriangleOutL-2"
       style="stroke-linecap:butt;stroke-linejoin:round;stroke-miterlimit:100000;overflow:visible">
      <path
         inkscape:connector-curvature="0"
         id="path5000-6"
         d="m 5.77,0 -8.65,5 0,-10 8.65,5 z"
         style="fill-rule:evenodd;stroke:#000000;stroke-width:1pt;stroke-linecap:butt;stroke-linejoin:round;stroke-miterlimit:100000"
         transform="scale(0.8,0.8)" />
    </marker>
    <marker
       inkscape:stockid="TriangleOutL"
       orient="auto"
       refY="0"
       refX="0"
       id="TriangleOutL-9"
       style="stroke-linecap:butt;stroke-linejoin:round;stroke-miterlimit:100000;overflow:visible">
      <path
         inkscape:connector-curvature="0"
         id="path5000-60"
         d="m 5.77,0 -8.65,5 0,-10 8.65,5 z"
         style="fill-rule:evenodd;stroke:#000000;stroke-width:1pt;stroke-linecap:butt;stroke-linejoin:round;stroke-miterlimit:100000"
         transform="scale(0.8,0.8)" />
    </marker>
  </defs>
  <path
     style="opacity:0.7;fill:#0000ff;stroke:#0000ff;stroke-width:1.60000002;stroke-linecap:butt;stroke-linejoin:miter;stroke-miterlimit:100;stroke-opacity:1;stroke-dasharray:none;stroke-dashoffset:0"
     d="m 120.36314,346.51652 483.13898,0"
     id="path4074-2-4"
     inkscape:connector-curvature="0"
     sodipodi:nodetypes="cc" />
  <path
     inkscape:connector-curvature="0"
     id="path17"
     style="fill:none;stroke:#000000;stroke-width:3.20000005;stroke-linecap:butt;stroke-linejoin:round;stroke-miterlimit:100;stroke-dasharray:3.2, 3.2;stroke-dashoffset:0"
     d="m 69.768,296.01724 2.232,-0.38237 2.232,0.25755 2.232,0.88439 2.232,1.43624 2.232,1.85723 6.696,6.22965 2.232,1.61319 2.232,1.08016 2.232,0.42937 2.232,-0.27759 2.232,-0.97224 2.232,-1.58595 2.232,-2.05649 6.696,-6.92935 2.232,-1.80393 2.232,-1.21338 2.232,-0.48918 2.232,0.30047 2.232,1.07935 2.232,1.77048 2.232,2.30364 6.696,7.80628 2.232,2.04576 2.232,1.3839 2.232,0.56773 2.232,-0.32647 2.232,-1.21273 2.232,-2.00352 2.232,-2.61834 6.696,-8.93754 2.232,-2.36235 2.232,-1.60986 2.232,-0.6751 2.232,0.35542 2.232,1.38323 2.232,2.30705 2.232,3.03257 6.696,10.45259 2.232,2.79464 2.232,1.92325 2.232,0.82998 2.232,-0.3856 2.232,-1.60843 2.232,-2.71851 2.232,-3.60241 6.696,-12.58682 2.232,-3.41994 2.232,-2.38633 2.232,-1.07077 2.232,0.41008 2.232,1.91835 2.232,3.30746 2.232,4.43562 6.696,15.81781 2.232,4.40378 2.232,3.13779 2.232,1.48938 2.232,-0.40228 2.232,-2.36704 2.232,-4.21819 2.232,-5.76895 2.232,-6.84994 4.464,-14.43584 2.232,-6.17474 2.232,-4.55816 2.232,-2.36418 2.232,0.24258 2.232,3.04749 2.232,5.80169 2.232,8.24148 2.232,10.11004 4.464,22.45125 2.232,10.27608 2.232,8.16204 2.232,4.98629 2.232,0.89274 2.232,-3.89431 2.232,-9.08375 2.232,-14.33699 2.232,-19.29169 2.232,-23.58802 2.232,-26.89579 6.696,-86.99666 2.232,-25.9812 2.232,-21.96183 2.232,-16.68164 2.232,-10.431744 2.232,-3.570646 2.232,3.500452 2.232,10.365658 2.232,16.62351 2.232,21.91491 2.232,25.94801 4.464,58.03695 2.232,28.95283 2.232,26.92269 2.232,23.62631 2.232,19.3383 2.232,14.38847 2.232,9.13644 2.232,3.94468 2.232,-0.84786 2.232,-4.94952 2.232,-8.13523 2.232,-10.26028 4.464,-22.45234 2.232,-10.12482 2.232,-8.26321 2.232,-5.82794 2.232,-3.07563 2.232,-0.27003 2.232,2.33977 2.232,4.53873 2.232,6.16165 6.696,21.2886 2.232,5.78214 2.232,4.23533 2.232,2.38634 2.232,0.42185 2.232,-1.47135 2.232,-3.12288 2.232,-4.39319 6.696,-15.81707 2.232,-4.44494 2.232,-3.3201 2.232,-1.93298 2.232,-0.42523 2.232,1.05651 2.232,2.37428 2.232,3.41113 2.232,4.08107 4.464,8.50376 2.232,3.60955 2.232,2.72849 2.232,1.62018 2.232,0.39796 2.232,-0.8182 2.232,-1.91315 2.232,-2.78712 2.232,-3.36468 4.464,-7.08545 2.232,-3.03833 2.232,-2.31526 2.232,-1.39305 2.232,-0.36585 2.232,0.66508 2.232,1.60116 2.232,2.3558 2.232,2.86216 4.464,6.07275 2.232,2.62314 2.232,2.0105 2.232,1.22115 2.232,0.33548 2.232,-0.55899 2.232,-1.37628 2.232,-2.03994 2.232,-2.49021 4.464,-5.31341 2.232,-2.30776 2.232,-1.77653 2.232,-1.08672 2.232,-0.3084 2.232,0.48145 2.232,1.20658 2.232,1.7987 2.232,2.20381 4.464,4.72292 2.232,2.06007 2.232,1.59129 2.232,0.97879 2.232,0.28467 2.232,-0.42243 0,0"
     clip-path="url(#pa5ba84fadb)"
     transform="translate(85.709114,-42.23655)" />
  <path
     inkscape:connector-curvature="0"
     id="path20"
     style="fill:none;stroke:#ff0000;stroke-width:4;stroke-linecap:square;stroke-linejoin:round;stroke-miterlimit:100;stroke-dasharray:none"
     d="m 69.768,300.81972 2.232,-0.0422 2.232,0.0968 2.232,0.22886 4.464,0.76189 6.696,1.32367 2.232,0.31442 2.232,0.1896 2.232,0.0433 2.232,-0.11038 2.232,-0.25643 4.464,-0.84892 6.696,-1.4695 2.232,-0.34733 2.232,-0.20761 2.232,-0.0439 2.232,0.12804 2.232,0.29141 4.464,0.95827 6.696,1.65125 2.232,0.38776 2.232,0.22906 2.232,0.0432 2.232,-0.15198 2.232,-0.33735 4.464,-1.10003 6.696,-1.88433 2.232,-0.43865 2.232,-0.25495 2.232,-0.04 2.232,0.18578 2.232,0.40007 2.232,0.58107 8.928,2.90284 2.232,0.5042 2.232,0.286 2.232,0.0309 2.232,-0.2369 2.232,-0.49092 2.232,-0.70504 4.464,-1.78245 4.464,-1.69632 2.232,-0.59132 2.232,-0.32237 2.232,-0.008 2.232,0.32107 2.232,0.63312 2.232,0.8952 4.464,2.23723 2.232,1.12441 2.232,0.97124 2.232,0.70859 2.232,0.35708 2.232,-0.0525 2.232,-0.48129 2.232,-0.88624 2.232,-1.22356 8.928,-5.71392 2.232,-0.85554 2.232,-0.34525 2.232,0.2444 2.232,0.85505 2.232,1.41882 2.232,1.8633 4.464,4.23519 2.232,1.81412 2.232,1.17537 2.232,0.19321 2.232,-1.11502 2.232,-2.70567 2.232,-4.50991 2.232,-6.43697 2.232,-8.37918 2.232,-10.21848 2.232,-11.83414 2.232,-13.11086 8.928,-55.35914 2.232,-11.71037 2.232,-9.73843 2.232,-7.31185 2.232,-4.53853 2.232,-1.54785 2.232,1.51734 2.232,4.50949 2.232,7.28564 2.232,9.71626 2.232,11.69319 2.232,13.1361 8.928,55.33344 2.232,11.84873 2.232,10.23592 2.232,8.39826 2.232,6.45651 2.232,4.52874 2.232,2.72282 2.232,1.12966 2.232,-0.18164 2.232,-1.16718 2.232,-1.80937 4.464,-4.23499 2.232,-1.86687 2.232,-1.42395 2.232,-0.86104 2.232,-0.25052 2.232,0.33962 2.232,0.85095 2.232,1.23852 6.696,4.47231 2.232,1.22641 2.232,0.88999 2.232,0.48554 2.232,0.0567 2.232,-0.35318 2.232,-0.70544 2.232,-0.96908 6.696,-3.36212 2.232,-0.89744 2.232,-0.63601 2.232,-0.32433 2.232,0.005 2.232,0.31938 2.232,0.5889 4.464,1.69394 4.464,1.78373 2.232,0.70686 2.232,0.49328 2.232,0.23955 2.232,-0.0282 2.232,-0.28357 2.232,-0.50223 4.464,-1.42043 4.464,-1.48161 2.232,-0.58261 2.232,-0.40205 2.232,-0.18801 2.232,0.0377 2.232,0.25289 2.232,0.437 4.464,1.22253 4.464,1.26706 2.232,0.49546 2.232,0.33906 2.232,0.15391 2.232,-0.0413 2.232,-0.22728 2.232,-0.38632 4.464,-1.07267 4.464,-1.10661 2.232,-0.43088 2.232,-0.29291 2.232,-0.12975 2.232,0.0422 2.232,0.20604 4.464,0.79527 6.696,1.48862 2.232,0.38118 2.232,0.25777 2.232,0.1119 2.232,-0.0418 0,0"
     clip-path="url(#pa5ba84fadb)"
     transform="translate(85.709114,-42.23655)" />
  <g
     style="stroke-linecap:butt;stroke-linejoin:round;stroke-miterlimit:100000"
     id="patch_7"
     transform="translate(85.709114,-42.23655)">
    <path
       inkscape:connector-curvature="0"
       id="path356"
       style="fill:#ffffff;stroke:#000000;stroke-linecap:butt;stroke-linejoin:miter;stroke-miterlimit:100000"
       d="m 331.308,96.993 179.892,0 0,-46.593 -179.892,0 z" />
  </g>
  <path
     d="m 427.09711,19.8252 20.16,0"
     style="fill:none;stroke:#000000;stroke-width:3.20000005;stroke-linecap:butt;stroke-linejoin:round;stroke-miterlimit:100;stroke-dasharray:3.2, 3.2;stroke-dashoffset:0"
     id="path359"
     inkscape:connector-curvature="0" />
  <g
     style="stroke-linecap:butt;stroke-linejoin:round;stroke-miterlimit:100000"
     id="line2d_32"
     transform="translate(85.709114,-42.23655)" />
  <g
     style="stroke-linecap:butt;stroke-linejoin:round;stroke-miterlimit:100000"
     id="text_15"
     transform="translate(85.709114,-42.23655)">
    <!-- Unbroadened line -->
    <defs
       id="defs363">
      <path
         style="stroke-linecap:butt;stroke-linejoin:round;stroke-miterlimit:100000"
         inkscape:connector-curvature="0"
         d=""
         id="BitstreamVeraSans-Roman-20" />
      <path
         style="stroke-linecap:butt;stroke-linejoin:round;stroke-miterlimit:100000"
         inkscape:connector-curvature="0"
         id="BitstreamVeraSans-Roman-6e"
         d="m 54.890625,33.015625 0,-33.015625 -8.984375,0 0,32.71875 q 0,7.765625 -3.03125,11.609375 -3.03125,3.859375 -9.078125,3.859375 -7.28125,0 -11.484375,-4.640625 -4.203125,-4.625 -4.203125,-12.640625 l 0,-30.90625 -9.03125,0 0,54.6875 9.03125,0 0,-8.5 q 3.234375,4.9375 7.59375,7.375 4.375,2.4375 10.09375,2.4375 9.421875,0 14.25,-5.828125 4.84375,-5.828125 4.84375,-17.15625" />
      <path
         style="stroke-linecap:butt;stroke-linejoin:round;stroke-miterlimit:100000"
         inkscape:connector-curvature="0"
         id="BitstreamVeraSans-Roman-72"
         d="m 41.109375,46.296875 q -1.515625,0.875 -3.296875,1.28125 Q 36.03125,48 33.890625,48 26.265625,48 22.1875,43.046875 18.109375,38.09375 18.109375,28.8125 l 0,-28.8125 -9.03125,0 0,54.6875 9.03125,0 0,-8.5 q 2.84375,4.984375 7.375,7.390625 Q 30.03125,56 36.53125,56 q 0.921875,0 2.046875,-0.125 1.125,-0.109375 2.484375,-0.359375 z" />
      <path
         style="stroke-linecap:butt;stroke-linejoin:round;stroke-miterlimit:100000"
         inkscape:connector-curvature="0"
         id="BitstreamVeraSans-Roman-6f"
         d="m 30.609375,48.390625 q -7.21875,0 -11.421875,-5.640625 -4.203125,-5.640625 -4.203125,-15.453125 0,-9.8125 4.171875,-15.453125 4.1875,-5.640625 11.453125,-5.640625 7.1875,0 11.375,5.65625 4.203125,5.671875 4.203125,15.4375 0,9.71875 -4.203125,15.40625 -4.1875,5.6875 -11.375,5.6875 m 0,7.609375 q 11.71875,0 18.40625,-7.625 6.703125,-7.609375 6.703125,-21.078125 0,-13.421875 -6.703125,-21.078125 -6.6875,-7.640625 -18.40625,-7.640625 -11.765625,0 -18.4375,7.640625 -6.65625,7.65625 -6.65625,21.078125 0,13.46875 6.65625,21.078125 Q 18.84375,56 30.609375,56" />
      <path
         style="stroke-linecap:butt;stroke-linejoin:round;stroke-miterlimit:100000"
         inkscape:connector-curvature="0"
         id="BitstreamVeraSans-Roman-6c"
         d="m 9.421875,75.984375 8.984375,0 L 18.40625,0 9.421875,0 z" />
      <path
         style="stroke-linecap:butt;stroke-linejoin:round;stroke-miterlimit:100000"
         inkscape:connector-curvature="0"
         id="BitstreamVeraSans-Roman-69"
         d="m 9.421875,54.6875 8.984375,0 0,-54.6875 -8.984375,0 z m 0,21.296875 8.984375,0 0,-11.390625 -8.984375,0 z" />
      <path
         style="stroke-linecap:butt;stroke-linejoin:round;stroke-miterlimit:100000"
         inkscape:connector-curvature="0"
         id="BitstreamVeraSans-Roman-55"
         d="m 8.6875,72.90625 9.921875,0 0,-44.296875 q 0,-11.71875 4.234375,-16.875 4.25,-5.140625 13.78125,-5.140625 9.46875,0 13.71875,5.140625 4.25,5.15625 4.25,16.875 l 0,44.296875 9.90625,0 0,-45.515625 q 0,-14.25 -7.0625,-21.53125 -7.046875,-7.28125 -20.8125,-7.28125 -13.828125,0 -20.890625,7.28125 Q 8.6875,13.140625 8.6875,27.390625 z" />
      <path
         style="stroke-linecap:butt;stroke-linejoin:round;stroke-miterlimit:100000"
         inkscape:connector-curvature="0"
         id="BitstreamVeraSans-Roman-65"
         d="m 56.203125,29.59375 0,-4.390625 -41.3125,0 q 0.59375,-9.28125 5.59375,-14.140625 5,-4.859375 13.9375,-4.859375 5.171875,0 10.03125,1.265625 4.859375,1.265625 9.65625,3.8125 l 0,-8.5 q -4.84375,-2.046875 -9.921875,-3.125 -5.078125,-1.078125 -10.296875,-1.078125 -13.09375,0 -20.734375,7.609375 -7.640625,7.625 -7.640625,20.625 0,13.421875 7.25,21.296875 Q 20.015625,56 32.328125,56 q 11.03125,0 17.453125,-7.109375 6.421875,-7.09375 6.421875,-19.296875 m -8.984375,2.640625 q -0.09375,7.359375 -4.125,11.75 -4.03125,4.40625 -10.671875,4.40625 -7.515625,0 -12.03125,-4.25 -4.515625,-4.25 -5.203125,-11.96875 z" />
      <path
         style="stroke-linecap:butt;stroke-linejoin:round;stroke-miterlimit:100000"
         inkscape:connector-curvature="0"
         id="BitstreamVeraSans-Roman-64"
         d="m 45.40625,46.390625 0,29.59375 8.984375,0 0,-75.984375 -8.984375,0 0,8.203125 q -2.828125,-4.875 -7.15625,-7.25 -4.3125,-2.375 -10.375,-2.375 -9.90625,0 -16.140625,7.90625 -6.21875,7.921875 -6.21875,20.8125 0,12.890625 6.21875,20.796875 Q 17.96875,56 27.875,56 q 6.0625,0 10.375,-2.375 4.328125,-2.359375 7.15625,-7.234375 M 14.796875,27.296875 q 0,-9.90625 4.078125,-15.546875 4.078125,-5.640625 11.203125,-5.640625 7.125,0 11.21875,5.640625 4.109375,5.640625 4.109375,15.546875 0,9.90625 -4.109375,15.546875 -4.09375,5.640625 -11.21875,5.640625 -7.125,0 -11.203125,-5.640625 -4.078125,-5.640625 -4.078125,-15.546875" />
      <path
         style="stroke-linecap:butt;stroke-linejoin:round;stroke-miterlimit:100000"
         inkscape:connector-curvature="0"
         id="BitstreamVeraSans-Roman-61"
         d="m 34.28125,27.484375 q -10.890625,0 -15.09375,-2.484375 -4.203125,-2.484375 -4.203125,-8.5 0,-4.78125 3.15625,-7.59375 3.15625,-2.796875 8.5625,-2.796875 7.484375,0 12,5.296875 4.515625,5.296875 4.515625,14.078125 l 0,2 z m 17.921875,3.71875 0,-31.203125 -8.984375,0 0,8.296875 q -3.078125,-4.96875 -7.671875,-7.34375 -4.59375,-2.375 -11.234375,-2.375 -8.390625,0 -13.359375,4.71875 Q 6,8.015625 6,15.921875 q 0,9.21875 6.171875,13.90625 6.1875,4.6875 18.4375,4.6875 l 12.609375,0 0,0.890625 q 0,6.203125 -4.078125,9.59375 -4.078125,3.390625 -11.453125,3.390625 -4.6875,0 -9.140625,-1.125 -4.4375,-1.125 -8.53125,-3.375 l 0,8.3125 q 4.921875,1.90625 9.5625,2.84375 Q 24.21875,56 28.609375,56 q 11.875,0 17.734375,-6.15625 5.859375,-6.140625 5.859375,-18.640625" />
      <path
         style="stroke-linecap:butt;stroke-linejoin:round;stroke-miterlimit:100000"
         inkscape:connector-curvature="0"
         id="BitstreamVeraSans-Roman-62"
         d="m 48.6875,27.296875 q 0,9.90625 -4.078125,15.546875 -4.078125,5.640625 -11.203125,5.640625 -7.140625,0 -11.21875,-5.640625 -4.078125,-5.640625 -4.078125,-15.546875 0,-9.90625 4.078125,-15.546875 4.078125,-5.640625 11.21875,-5.640625 7.125,0 11.203125,5.640625 4.078125,5.640625 4.078125,15.546875 m -30.578125,19.09375 q 2.84375,4.875 7.15625,7.234375 Q 29.59375,56 35.59375,56 q 9.96875,0 16.1875,-7.90625 6.234375,-7.90625 6.234375,-20.796875 0,-12.890625 -6.234375,-20.8125 -6.21875,-7.90625 -16.1875,-7.90625 -6,0 -10.328125,2.375 -4.3125,2.375 -7.15625,7.25 l 0,-8.203125 -9.03125,0 0,75.984375 9.03125,0 z" />
    </defs>
    <g
       style="stroke-linecap:butt;stroke-linejoin:round;stroke-miterlimit:100000"
       id="g376"
       transform="matrix(0.144,0,0,-0.144,377.388,67.10175)">
      <use
         height="432"
         width="576"
         y="0"
         x="0"
         style="stroke-linecap:butt;stroke-linejoin:round;stroke-miterlimit:100000"
         id="use378"
         xlink:href="#BitstreamVeraSans-Roman-55" />
      <use
         height="432"
         width="576"
         y="0"
         style="stroke-linecap:butt;stroke-linejoin:round;stroke-miterlimit:100000"
         id="use380"
         xlink:href="#BitstreamVeraSans-Roman-6e"
         x="73.193359" />
      <use
         height="432"
         width="576"
         y="0"
         style="stroke-linecap:butt;stroke-linejoin:round;stroke-miterlimit:100000"
         id="use382"
         xlink:href="#BitstreamVeraSans-Roman-62"
         x="136.57227" />
      <use
         height="432"
         width="576"
         y="0"
         style="stroke-linecap:butt;stroke-linejoin:round;stroke-miterlimit:100000"
         id="use384"
         xlink:href="#BitstreamVeraSans-Roman-72"
         x="200.04883" />
      <use
         height="432"
         width="576"
         y="0"
         style="stroke-linecap:butt;stroke-linejoin:round;stroke-miterlimit:100000"
         id="use386"
         xlink:href="#BitstreamVeraSans-Roman-6f"
         x="241.13086" />
      <use
         height="432"
         width="576"
         y="0"
         style="stroke-linecap:butt;stroke-linejoin:round;stroke-miterlimit:100000"
         id="use388"
         xlink:href="#BitstreamVeraSans-Roman-61"
         x="302.3125" />
      <use
         height="432"
         width="576"
         y="0"
         style="stroke-linecap:butt;stroke-linejoin:round;stroke-miterlimit:100000"
         id="use390"
         xlink:href="#BitstreamVeraSans-Roman-64"
         x="363.5918" />
      <use
         height="432"
         width="576"
         y="0"
         style="stroke-linecap:butt;stroke-linejoin:round;stroke-miterlimit:100000"
         id="use392"
         xlink:href="#BitstreamVeraSans-Roman-65"
         x="427.06836" />
      <use
         height="432"
         width="576"
         y="0"
         style="stroke-linecap:butt;stroke-linejoin:round;stroke-miterlimit:100000"
         id="use394"
         xlink:href="#BitstreamVeraSans-Roman-6e"
         x="488.5918" />
      <use
         height="432"
         width="576"
         y="0"
         style="stroke-linecap:butt;stroke-linejoin:round;stroke-miterlimit:100000"
         id="use396"
         xlink:href="#BitstreamVeraSans-Roman-65"
         x="551.9707" />
      <use
         height="432"
         width="576"
         y="0"
         style="stroke-linecap:butt;stroke-linejoin:round;stroke-miterlimit:100000"
         id="use398"
         xlink:href="#BitstreamVeraSans-Roman-64"
         x="613.49414" />
      <use
         height="432"
         width="576"
         y="0"
         style="stroke-linecap:butt;stroke-linejoin:round;stroke-miterlimit:100000"
         id="use400"
         xlink:href="#BitstreamVeraSans-Roman-20"
         x="676.9707" />
      <use
         height="432"
         width="576"
         y="0"
         style="stroke-linecap:butt;stroke-linejoin:round;stroke-miterlimit:100000"
         id="use402"
         xlink:href="#BitstreamVeraSans-Roman-6c"
         x="708.75781" />
      <use
         height="432"
         width="576"
         y="0"
         style="stroke-linecap:butt;stroke-linejoin:round;stroke-miterlimit:100000"
         id="use404"
         xlink:href="#BitstreamVeraSans-Roman-69"
         x="736.54102" />
      <use
         height="432"
         width="576"
         y="0"
         style="stroke-linecap:butt;stroke-linejoin:round;stroke-miterlimit:100000"
         id="use406"
         xlink:href="#BitstreamVeraSans-Roman-6e"
         x="764.32422" />
      <use
         height="432"
         width="576"
         y="0"
         style="stroke-linecap:butt;stroke-linejoin:round;stroke-miterlimit:100000"
         id="use408"
         xlink:href="#BitstreamVeraSans-Roman-65"
         x="827.70312" />
    </g>
  </g>
  <path
     d="m 427.09711,40.9617 20.16,0"
     style="fill:none;stroke:#ff0000;stroke-width:4;stroke-linecap:square;stroke-linejoin:round;stroke-miterlimit:100;stroke-dasharray:none"
     id="path411"
     inkscape:connector-curvature="0" />
  <g
     style="stroke-linecap:butt;stroke-linejoin:round;stroke-miterlimit:100000"
     id="line2d_34"
     transform="translate(85.709114,-42.23655)" />
  <g
     style="stroke-linecap:butt;stroke-linejoin:round;stroke-miterlimit:100000"
     id="text_16"
     transform="translate(85.709114,-42.23655)">
    <!-- Broadened line -->
    <defs
       id="defs415">
      <path
         style="stroke-linecap:butt;stroke-linejoin:round;stroke-miterlimit:100000"
         inkscape:connector-curvature="0"
         id="BitstreamVeraSans-Roman-42"
         d="m 19.671875,34.8125 0,-26.703125 15.828125,0 q 7.953125,0 11.78125,3.296875 3.84375,3.296875 3.84375,10.078125 0,6.84375 -3.84375,10.078125 -3.828125,3.25 -11.78125,3.25 z m 0,29.984375 0,-21.96875 14.609375,0 q 7.21875,0 10.75,2.703125 3.546875,2.71875 3.546875,8.28125 0,5.515625 -3.546875,8.25 -3.53125,2.734375 -10.75,2.734375 z M 9.8125,72.90625 l 25.203125,0 q 11.28125,0 17.375,-4.6875 Q 58.5,63.53125 58.5,54.890625 58.5,48.1875 55.375,44.234375 52.25,40.28125 46.1875,39.3125 53.46875,37.75 57.5,32.78125 q 4.03125,-4.953125 4.03125,-12.375 0,-9.765625 -6.640625,-15.09375 Q 48.25,0 35.984375,0 L 9.8125,0 z" />
    </defs>
    <g
       style="stroke-linecap:butt;stroke-linejoin:round;stroke-miterlimit:100000"
       id="g418"
       transform="matrix(0.144,0,0,-0.144,377.388,88.23825)">
      <use
         height="432"
         width="576"
         y="0"
         x="0"
         style="stroke-linecap:butt;stroke-linejoin:round;stroke-miterlimit:100000"
         id="use420"
         xlink:href="#BitstreamVeraSans-Roman-42" />
      <use
         height="432"
         width="576"
         y="0"
         style="stroke-linecap:butt;stroke-linejoin:round;stroke-miterlimit:100000"
         id="use422"
         xlink:href="#BitstreamVeraSans-Roman-72"
         x="68.603516" />
      <use
         height="432"
         width="576"
         y="0"
         style="stroke-linecap:butt;stroke-linejoin:round;stroke-miterlimit:100000"
         id="use424"
         xlink:href="#BitstreamVeraSans-Roman-6f"
         x="109.68555" />
      <use
         height="432"
         width="576"
         y="0"
         style="stroke-linecap:butt;stroke-linejoin:round;stroke-miterlimit:100000"
         id="use426"
         xlink:href="#BitstreamVeraSans-Roman-61"
         x="170.86719" />
      <use
         height="432"
         width="576"
         y="0"
         style="stroke-linecap:butt;stroke-linejoin:round;stroke-miterlimit:100000"
         id="use428"
         xlink:href="#BitstreamVeraSans-Roman-64"
         x="232.14648" />
      <use
         height="432"
         width="576"
         y="0"
         style="stroke-linecap:butt;stroke-linejoin:round;stroke-miterlimit:100000"
         id="use430"
         xlink:href="#BitstreamVeraSans-Roman-65"
         x="295.62305" />
      <use
         height="432"
         width="576"
         y="0"
         style="stroke-linecap:butt;stroke-linejoin:round;stroke-miterlimit:100000"
         id="use432"
         xlink:href="#BitstreamVeraSans-Roman-6e"
         x="357.14648" />
      <use
         height="432"
         width="576"
         y="0"
         style="stroke-linecap:butt;stroke-linejoin:round;stroke-miterlimit:100000"
         id="use434"
         xlink:href="#BitstreamVeraSans-Roman-65"
         x="420.52539" />
      <use
         height="432"
         width="576"
         y="0"
         style="stroke-linecap:butt;stroke-linejoin:round;stroke-miterlimit:100000"
         id="use436"
         xlink:href="#BitstreamVeraSans-Roman-64"
         x="482.04883" />
      <use
         height="432"
         width="576"
         y="0"
         style="stroke-linecap:butt;stroke-linejoin:round;stroke-miterlimit:100000"
         id="use438"
         xlink:href="#BitstreamVeraSans-Roman-20"
         x="545.52539" />
      <use
         height="432"
         width="576"
         y="0"
         style="stroke-linecap:butt;stroke-linejoin:round;stroke-miterlimit:100000"
         id="use440"
         xlink:href="#BitstreamVeraSans-Roman-6c"
         x="577.3125" />
      <use
         height="432"
         width="576"
         y="0"
         style="stroke-linecap:butt;stroke-linejoin:round;stroke-miterlimit:100000"
         id="use442"
         xlink:href="#BitstreamVeraSans-Roman-69"
         x="605.0957" />
      <use
         height="432"
         width="576"
         y="0"
         style="stroke-linecap:butt;stroke-linejoin:round;stroke-miterlimit:100000"
         id="use444"
         xlink:href="#BitstreamVeraSans-Roman-6e"
         x="632.87891" />
      <use
         height="432"
         width="576"
         y="0"
         style="stroke-linecap:butt;stroke-linejoin:round;stroke-miterlimit:100000"
         id="use446"
         xlink:href="#BitstreamVeraSans-Roman-65"
         x="696.25781" />
    </g>
  </g>
  <defs
     id="defs448">
    <clipPath
       id="pa5ba84fadb">
      <rect
         height="345.60001"
         width="446.39999"
         x="72"
         y="43.200001"
         id="rect451"
         style="stroke-linecap:butt;stroke-linejoin:round;stroke-miterlimit:100000" />
    </clipPath>
  </defs>
  <path
     style="opacity:0.7;fill:#0000ff;stroke:#0000ff;stroke-width:1.60000002;stroke-linecap:butt;stroke-linejoin:miter;stroke-miterlimit:100;stroke-opacity:1;stroke-dasharray:none;stroke-dashoffset:0"
     d="m 120.36315,260.02785 483.13897,0"
     id="path4074"
     inkscape:connector-curvature="0"
     sodipodi:nodetypes="cc" />
  <text
     xml:space="preserve"
     style="font-size:32px;font-style:normal;font-variant:normal;font-weight:normal;font-stretch:normal;line-height:125%;letter-spacing:0px;word-spacing:0px;fill:#000000;fill-opacity:1;stroke:none;font-family:Sans;-inkscape-font-specification:Sans"
     x="-2.3554688"
     y="311.25134"
     id="text4080"
     sodipodi:linespacing="125%"><tspan
       sodipodi:role="line"
       id="tspan4082"
       x="-2.3554688"
       y="311.25134"
       style="font-size:24px">Height</tspan></text>
  <path
     style="fill:none;stroke:#000000;stroke-width:1.60000002;stroke-linecap:butt;stroke-linejoin:miter;stroke-miterlimit:100;stroke-opacity:1;stroke-dasharray:none;marker-end:url(#TriangleOutL)"
     d="m 132.12859,346.1325 0,-77.80555"
     id="path4084"
     inkscape:connector-curvature="0"
     sodipodi:nodetypes="cc" />
  <path
     style="opacity:0.7;fill:#0000ff;stroke:#0000ff;stroke-width:1.60000002;stroke-linecap:butt;stroke-linejoin:miter;stroke-miterlimit:100;stroke-opacity:1;stroke-dasharray:none;stroke-dashoffset:0"
     d="m 120.36315,116.0458 271.13897,0"
     id="path4074-2"
     inkscape:connector-curvature="0"
     sodipodi:nodetypes="cc" />
  <text
     xml:space="preserve"
     style="font-size:32px;font-style:normal;font-variant:normal;font-weight:normal;font-stretch:normal;line-height:125%;letter-spacing:0px;word-spacing:0px;fill:#000000;fill-opacity:1;stroke:none;font-family:Sans;-inkscape-font-specification:Sans"
     x="-0.1875"
     y="199.53419"
     id="text4080-6"
     sodipodi:linespacing="125%"><tspan
       sodipodi:role="line"
       id="tspan4082-5"
       x="-0.1875"
       y="199.53419"
       style="font-size:24px">Amplitude</tspan></text>
  <path
     style="fill:none;stroke:#000000;stroke-width:1.60000002;stroke-linecap:butt;stroke-linejoin:miter;stroke-miterlimit:100;stroke-opacity:1;stroke-dasharray:none;marker-end:url(#TriangleOutL)"
     d="m 132.12859,258.39503 0,-132.20554"
     id="path4084-5"
     inkscape:connector-curvature="0"
     sodipodi:nodetypes="cc" />
  <path
     style="opacity:0.7;fill:#0000ff;stroke:#0000ff;stroke-width:1.60000002;stroke-linecap:butt;stroke-linejoin:miter;stroke-miterlimit:100;stroke-opacity:1;stroke-dasharray:none;stroke-dashoffset:0"
     d="m 374.32794,183.47647 0,163.1331"
     id="path4074-2-8"
     inkscape:connector-curvature="0"
     sodipodi:nodetypes="cc" />
  <path
     style="opacity:0.7;fill:#0000ff;stroke:#0000ff;stroke-width:1.60000002;stroke-linecap:butt;stroke-linejoin:miter;stroke-miterlimit:100;stroke-opacity:1;stroke-dasharray:none;stroke-dashoffset:0"
     d="m 409.6735,183.2 0,163.40957"
     id="path4074-2-8-7"
     inkscape:connector-curvature="0"
     sodipodi:nodetypes="cc" />
  <path
     style="fill:none;stroke:#000000;stroke-width:1.60000002;stroke-linecap:butt;stroke-linejoin:miter;stroke-miterlimit:100;stroke-opacity:1;stroke-dasharray:none;marker-start:url(#TriangleInL);marker-end:url(#TriangleOutL)"
     d="m 381.4083,359.58698 21.17026,0"
     id="path4084-4"
     inkscape:connector-curvature="0"
     sodipodi:nodetypes="cc" />
  <text
     xml:space="preserve"
     style="font-size:32px;font-style:normal;font-variant:normal;font-weight:normal;font-stretch:normal;line-height:125%;letter-spacing:0px;word-spacing:0px;fill:#000000;fill-opacity:1;stroke:none;font-family:Sans;-inkscape-font-specification:Sans"
     x="349.86609"
     y="390.39496"
     id="text4080-1"
     sodipodi:linespacing="125%"><tspan
       sodipodi:role="line"
       id="tspan4082-0"
       x="349.86609"
       y="390.39496"
       style="font-size:24px">FWHM</tspan></text>
</svg>
